<svg width="112" height="48" viewBox="0 0 112 48" fill="none" xmlns="http://www.w3.org/2000/svg">
<path d="M35 17.1818V22.8636H20.625V17.1818H35ZM23.4091 11.9545H31.25V31.983C31.25 32.286 31.3021 32.5417 31.4062 32.75C31.5104 32.9489 31.6714 33.1004 31.8892 33.2045C32.107 33.2992 32.3864 33.3466 32.7273 33.3466C32.964 33.3466 33.2386 33.3182 33.5511 33.2614C33.8731 33.2045 34.1098 33.1572 34.2614 33.1193L35.3977 38.6307C35.0473 38.7348 34.5455 38.8627 33.892 39.0142C33.2481 39.1657 32.4811 39.2652 31.5909 39.3125C29.7917 39.4072 28.2813 39.2225 27.0597 38.7585C25.8381 38.285 24.9195 37.5417 24.304 36.5284C23.6884 35.5152 23.3902 34.2462 23.4091 32.7216V11.9545ZM48.4766 39.3977C46.1091 39.3977 44.0826 38.929 42.397 37.9915C40.7114 37.0445 39.4188 35.7282 38.5192 34.0426C37.6196 32.3475 37.1697 30.3826 37.1697 28.1477C37.1697 25.9129 37.6196 23.9527 38.5192 22.267C39.4188 20.572 40.7114 19.2557 42.397 18.3182C44.0826 17.3712 46.1091 16.8977 48.4766 16.8977C50.844 16.8977 52.8705 17.3712 54.5561 18.3182C56.2417 19.2557 57.5343 20.572 58.4339 22.267C59.3336 23.9527 59.7834 25.9129 59.7834 28.1477C59.7834 30.3826 59.3336 32.3475 58.4339 34.0426C57.5343 35.7282 56.2417 37.0445 54.5561 37.9915C52.8705 38.929 50.844 39.3977 48.4766 39.3977ZM48.5334 33.6023C49.1963 33.6023 49.7692 33.3797 50.2521 32.9347C50.7351 32.4896 51.1091 31.8551 51.3743 31.0312C51.6394 30.2074 51.772 29.2273 51.772 28.0909C51.772 26.9451 51.6394 25.965 51.3743 25.1506C51.1091 24.3267 50.7351 23.6922 50.2521 23.2472C49.7692 22.8021 49.1963 22.5795 48.5334 22.5795C47.8326 22.5795 47.2313 22.8021 46.7294 23.2472C46.2275 23.6922 45.844 24.3267 45.5788 25.1506C45.3137 25.965 45.1811 26.9451 45.1811 28.0909C45.1811 29.2273 45.3137 30.2074 45.5788 31.0312C45.844 31.8551 46.2275 32.4896 46.7294 32.9347C47.2313 33.3797 47.8326 33.6023 48.5334 33.6023Z" fill="#059669"/>
<path d="M70.8629 39.2841C69.3099 39.2841 67.88 38.8769 66.5732 38.0625C65.2758 37.2481 64.2341 36.0123 63.4482 34.3551C62.6716 32.6979 62.2834 30.6098 62.2834 28.0909C62.2834 25.4583 62.6906 23.3182 63.505 21.6705C64.3288 20.0227 65.3894 18.8153 66.6868 18.0483C67.9936 17.2812 69.3667 16.8977 70.8061 16.8977C71.8857 16.8977 72.8326 17.0871 73.647 17.4659C74.4614 17.8352 75.1432 18.3324 75.6925 18.9574C76.2417 19.5729 76.6584 20.25 76.9425 20.9886H77.0561V9.90909H84.897V39H77.1129V35.4205H76.9425C76.6394 36.1591 76.2038 36.822 75.6357 37.4091C75.0769 37.9867 74.3951 38.446 73.5902 38.7869C72.7947 39.1184 71.8857 39.2841 70.8629 39.2841ZM73.7607 33.2614C74.4804 33.2614 75.0959 33.053 75.6072 32.6364C76.1281 32.2102 76.5258 31.6136 76.8004 30.8466C77.0845 30.0701 77.2266 29.1515 77.2266 28.0909C77.2266 27.0114 77.0845 26.0881 76.8004 25.321C76.5258 24.5445 76.1281 23.9527 75.6072 23.5455C75.0959 23.1288 74.4804 22.9205 73.7607 22.9205C73.041 22.9205 72.4254 23.1288 71.9141 23.5455C71.4122 23.9527 71.0239 24.5445 70.7493 25.321C70.4841 26.0881 70.3516 27.0114 70.3516 28.0909C70.3516 29.1705 70.4841 30.0985 70.7493 30.875C71.0239 31.642 71.4122 32.2339 71.9141 32.6506C72.4254 33.0578 73.041 33.2614 73.7607 33.2614ZM99.2578 39.3977C96.8904 39.3977 94.8639 38.929 93.1783 37.9915C91.4927 37.0445 90.2 35.7282 89.3004 34.0426C88.4008 32.3475 87.951 30.3826 87.951 28.1477C87.951 25.9129 88.4008 23.9527 89.3004 22.267C90.2 20.572 91.4927 19.2557 93.1783 18.3182C94.8639 17.3712 96.8904 16.8977 99.2578 16.8977C101.625 16.8977 103.652 17.3712 105.337 18.3182C107.023 19.2557 108.316 20.572 109.215 22.267C110.115 23.9527 110.565 25.9129 110.565 28.1477C110.565 30.3826 110.115 32.3475 109.215 34.0426C108.316 35.7282 107.023 37.0445 105.337 37.9915C103.652 38.929 101.625 39.3977 99.2578 39.3977ZM99.3146 33.6023C99.9775 33.6023 100.55 33.3797 101.033 32.9347C101.516 32.4896 101.89 31.8551 102.156 31.0312C102.421 30.2074 102.553 29.2273 102.553 28.0909C102.553 26.9451 102.421 25.965 102.156 25.1506C101.89 24.3267 101.516 23.6922 101.033 23.2472C100.55 22.8021 99.9775 22.5795 99.3146 22.5795C98.6139 22.5795 98.0125 22.8021 97.5107 23.2472C97.0088 23.6922 96.6252 24.3267 96.3601 25.1506C96.0949 25.965 95.9624 26.9451 95.9624 28.0909C95.9624 29.2273 96.0949 30.2074 96.3601 31.0312C96.6252 31.8551 97.0088 32.4896 97.5107 32.9347C98.0125 33.3797 98.6139 33.6023 99.3146 33.6023Z" fill="#EA580C"/>
<g clip-path="url(#clip0_43_109)">
<path d="M11.0215 12.933C14.1472 16.9011 15.8158 21.7944 15.7553 26.8155V28.0141L16.7865 28.6416C18.119 29.4482 19.1127 30.6993 19.5866 32.1669C19.1705 31.8605 18.7352 31.5803 18.2833 31.3278L15.5333 29.7838L15.0391 32.9001C14.9963 33.1755 14.9389 33.4485 14.8672 33.718H7.16151C7.04692 33.3655 6.95382 33.0129 6.86789 32.6463L6.24484 29.8261L3.70968 31.2362C3.28615 31.473 2.87723 31.7344 2.48507 32.0188C2.96824 30.5682 3.94123 29.3242 5.24224 28.4935L6.22336 27.866V26.7521C6.24106 21.7513 7.92967 16.8952 11.0287 12.933H11.0215ZM11.0287 10C10.868 10.0004 10.7128 10.058 10.5918 10.1622L10.5274 10.2186C6.39778 14.7656 4.10466 20.6454 4.08208 26.745C2.32967 27.8643 1.03251 29.5543 0.417263 31.5197C-0.197979 33.485 -0.0921719 35.6007 0.716194 37.4971C1.56776 35.6455 2.99131 34.1058 4.7839 33.0975C4.96368 33.8642 5.2031 34.6161 5.50005 35.3467C5.53771 35.4871 5.62118 35.6114 5.73763 35.7006C5.85408 35.7898 5.99706 35.8388 6.14458 35.8402H16.0847C16.2852 35.8402 16.4857 35.6498 16.586 35.3537C16.8758 34.6592 17.0778 33.9322 17.1875 33.1892C18.9836 34.1932 20.4083 35.7342 21.2553 37.5887C22.1124 35.7017 22.2451 33.5727 21.6287 31.5967C21.0124 29.6206 19.6888 27.9319 17.9037 26.8437C17.9745 20.7082 15.6935 14.7718 11.5157 10.2186C11.4535 10.1501 11.3773 10.0952 11.2922 10.0576C11.2071 10.0199 11.1149 10.0003 11.0215 10H11.0287Z" fill="#059669"/>
<path d="M11.0216 26.1598C10.4715 26.1598 9.93376 25.9995 9.47611 25.699C9.01846 25.3986 8.6614 24.9715 8.44993 24.4716C8.23847 23.9716 8.18206 23.4213 8.28782 22.8898C8.39358 22.3584 8.65678 21.8697 9.04423 21.4853C9.43169 21.1009 9.92606 20.838 10.465 20.7298C11.004 20.6216 11.5634 20.6729 12.0728 20.8773C12.5822 21.0816 13.0188 21.4298 13.3275 21.8781C13.6361 22.3263 13.8031 22.8545 13.8074 23.396V23.396C13.8159 23.7469 13.7542 24.0961 13.6256 24.4235C13.4971 24.751 13.3043 25.0503 13.0582 25.3043C12.8121 25.5583 12.5176 25.7622 12.1915 25.9041C11.8654 26.0461 11.5141 26.1234 11.1576 26.1316C11.1126 26.1387 11.0666 26.1387 11.0216 26.1316V26.1598Z" fill="#059669"/>
<path d="M14.8959 37.5958C14.7167 37.5901 14.5382 37.6198 14.3708 37.683C14.2034 37.7462 14.0505 37.8416 13.9211 37.9638C13.7917 38.086 13.6884 38.2323 13.6172 38.3943C13.546 38.5563 13.5084 38.7307 13.5066 38.9072V43.067C13.5066 43.4297 13.653 43.7776 13.9135 44.0342C14.1741 44.2907 14.5274 44.4348 14.8959 44.4348C15.2644 44.4348 15.6178 44.2907 15.8783 44.0342C16.1389 43.7776 16.2852 43.4297 16.2852 43.067V38.9636C16.291 38.7877 16.2611 38.6126 16.1973 38.4482C16.1336 38.2839 16.0372 38.1337 15.9139 38.0064C15.7906 37.879 15.6428 37.7772 15.4791 37.7067C15.3154 37.6362 15.139 37.5985 14.9604 37.5958H14.8959Z" fill="#EA580C"/>
<path d="M7.16154 37.5958C6.97931 37.5863 6.797 37.613 6.62546 37.6743C6.45392 37.7356 6.29665 37.8302 6.16302 37.9526C6.02939 38.0749 5.92213 38.2225 5.84761 38.3865C5.77309 38.5505 5.73284 38.7275 5.72925 38.9072V43.067C5.72925 43.4297 5.87562 43.7777 6.13617 44.0342C6.39672 44.2907 6.7501 44.4348 7.11857 44.4348C7.48704 44.4348 7.84042 44.2907 8.10097 44.0342C8.36152 43.7777 8.50789 43.4297 8.50789 43.067V38.9636C8.51362 38.7877 8.48373 38.6126 8.41998 38.4482C8.35623 38.2839 8.25989 38.1337 8.13658 38.0064C8.01326 37.879 7.86544 37.7772 7.70173 37.7067C7.53802 37.6362 7.36169 37.5985 7.18302 37.5958H7.16154Z" fill="#EA580C"/>
<path d="M10.9213 37.5958C10.7426 37.592 10.5649 37.623 10.3984 37.6869C10.2318 37.7507 10.0797 37.8463 9.95068 37.9681C9.82167 38.0899 9.71828 38.2355 9.64644 38.3966C9.5746 38.5577 9.5357 38.7312 9.53198 38.9072V44.6392C9.53198 45.002 9.67836 45.3499 9.93891 45.6064C10.1995 45.8629 10.5528 46.007 10.9213 46.007C11.2898 46.007 11.6432 45.8629 11.9037 45.6064C12.1643 45.3499 12.3106 45.002 12.3106 44.6392V38.9988C12.3164 38.823 12.2865 38.6478 12.2227 38.4835C12.159 38.3191 12.0626 38.1689 11.9393 38.0416C11.816 37.9143 11.6682 37.8124 11.5045 37.7419C11.3408 37.6714 11.1644 37.6337 10.9858 37.631L10.9213 37.5958Z" fill="#EA580C"/>
</g>
<defs>
<clipPath id="clip0_43_109">
<rect width="22" height="36" fill="white" transform="translate(0 10)"/>
</clipPath>
</defs>
</svg>
